<?xml version="1.0" standalone="no"?>
<!DOCTYPE svg PUBLIC "-//W3C//DTD SVG 20010904//EN"
 "http://www.w3.org/TR/2001/REC-SVG-20010904/DTD/svg10.dtd">
<svg version="1.0" xmlns="http://www.w3.org/2000/svg"
 width="128.000000pt" height="128.000000pt" viewBox="0 0 128.000000 128.000000"
 preserveAspectRatio="xMidYMid meet">
<metadata>
Created by potrace 1.11, written by Peter Selinger 2001-2013
</metadata>
<g transform="translate(0.000000,128.000000) scale(0.100000,-0.100000)"
fill="#000000" stroke="none">
<path d="M480 1215 l0 -55 -111 0 c-109 0 -111 0 -140 -29 l-29 -29 0 -166 0
-166 -50 0 c-38 0 -50 -4 -50 -15 0 -11 12 -15 50 -15 47 0 50 -1 50 -27 0
-25 -1 -25 -18 -10 -26 23 -41 21 -74 -10 -44 -42 -37 -53 32 -53 l60 0 0
-131 0 -131 29 -29 c22 -21 39 -29 66 -29 41 0 40 8 5 -95 l-17 -50 -141 -3
-142 -3 0 -84 0 -85 640 0 640 0 0 85 0 85 -139 0 -139 0 -26 71 c-14 38 -26
72 -26 75 0 2 16 4 36 4 26 0 43 8 65 29 28 29 29 32 29 130 0 99 1 101 23
101 28 0 47 17 47 42 0 10 5 18 10 18 6 0 10 -11 10 -25 0 -14 5 -25 10 -25 6
0 10 16 10 35 0 32 -2 35 -30 35 -27 0 -30 -3 -30 -30 0 -23 -4 -30 -20 -30
-14 0 -20 7 -20 24 0 13 -3 31 -6 40 -5 13 3 16 50 16 31 0 56 5 56 10 0 6
-22 10 -50 10 -38 0 -50 4 -50 15 0 11 12 15 50 15 28 0 50 5 50 10 0 6 -25
10 -55 10 l-55 0 0 176 0 176 -29 29 -29 29 -152 0 c-145 0 -153 1 -170 23
-12 14 -17 31 -13 46 6 26 -9 41 -44 41 -21 0 -23 -5 -23 -55 l0 -55 -42 0
c-31 0 -39 3 -31 11 15 15 0 56 -29 81 -32 28 -38 22 -38 -37z m185 25 c3 -5
-1 -10 -9 -10 -9 0 -16 5 -16 10 0 6 4 10 9 10 6 0 13 -4 16 -10z m-139 -24
c6 -26 -1 -46 -17 -46 -5 0 -9 16 -9 35 0 40 17 47 26 11z m144 -23 c27 -23
25 -33 -5 -33 -20 0 -25 5 -25 25 0 30 3 30 30 8z m375 -68 l25 -24 0 -361 0
-361 -25 -24 -24 -25 -381 0 -381 0 -24 25 -25 24 0 361 0 361 25 24 24 25
381 0 381 0 24 -25z m-860 -445 c18 -20 17 -20 -35 -20 -52 0 -53 0 -35 20 10
11 26 20 35 20 9 0 25 -9 35 -20z m776 -425 c11 -27 22 -58 25 -67 5 -17 -16
-18 -345 -18 l-350 0 20 58 c10 31 21 63 24 70 3 10 70 12 306 10 l301 -3 19
-50z m309 -170 l0 -75 -630 0 -630 0 0 75 0 75 630 0 630 0 0 -75z"/>
<path d="M592 1059 c-64 -11 -119 -38 -161 -79 -37 -37 -42 -80 -10 -80 18 0
20 -4 15 -42 -6 -43 -36 -322 -36 -333 0 -3 117 -5 260 -5 143 0 260 2 260 5
0 11 -30 290 -36 333 -5 40 -4 42 21 42 23 0 25 3 19 23 -23 76 -78 118 -178
136 -67 12 -79 12 -154 0z m133 -8 c34 -6 37 -8 19 -14 -28 -10 -48 -57 -42
-99 l5 -32 -29 37 c-17 20 -34 37 -38 37 -5 0 -14 -16 -20 -35 -7 -22 -18 -35
-28 -35 -12 0 -13 3 -5 8 6 4 15 31 19 60 6 45 4 53 -12 59 -15 6 -10 9 21 14
57 9 65 9 110 0z m105 -31 c40 -21 80 -67 80 -94 0 -12 -10 -16 -45 -16 l-45
0 0 49 c0 40 -4 53 -22 65 -31 22 -15 20 32 -4z m-270 -5 c0 -8 -7 -15 -15
-15 -8 0 -15 -4 -15 -10 0 -5 -7 -10 -15 -10 -22 0 -18 15 8 33 28 20 37 21
37 2z m32 -3 c-7 -2 -12 -8 -12 -13 0 -6 5 -7 10 -4 12 7 12 3 4 -19 -3 -9
-10 -13 -15 -10 -5 3 -9 1 -9 -5 0 -5 6 -12 13 -14 9 -4 8 -8 -3 -16 -10 -7
-16 -7 -18 0 -3 6 -9 5 -18 -2 -12 -10 -18 -9 -32 5 -16 16 -16 18 2 32 11 8
25 14 31 14 7 0 17 12 23 26 8 15 17 22 24 18 9 -6 9 -9 0 -12z m158 -2 c0 -5
5 -10 11 -10 5 0 7 5 4 10 -9 14 19 12 33 -2 17 -17 15 -28 -5 -29 -17 -1 -17
-2 0 -6 9 -2 17 -13 17 -24 0 -11 -4 -17 -10 -14 -5 3 -10 1 -10 -4 0 -6 -7
-11 -15 -11 -9 0 -12 6 -9 18 5 15 4 15 -10 -2 -10 -13 -21 -16 -33 -11 -17 8
-17 8 0 12 9 3 17 8 17 13 0 5 -7 7 -15 4 -9 -4 -15 0 -15 10 0 9 8 16 18 17
9 0 12 3 5 5 -7 3 -9 12 -6 20 6 16 23 19 23 4z m-248 -87 c8 -10 -1 -13 -41
-13 -63 0 -66 14 -13 66 l37 36 3 -38 c2 -21 8 -44 14 -51z m161 0 c-3 -7 -9
-13 -13 -13 -12 0 -20 28 -14 45 6 14 8 13 19 -2 7 -9 11 -23 8 -30z m-137
-44 c-21 -17 -29 -19 -41 -9 -25 21 -17 30 26 30 l42 0 -27 -21z m105 -5 c-12
-15 -21 -34 -21 -43 -1 -15 -39 45 -40 62 0 4 18 7 41 7 l40 0 -20 -26z m87 6
c-7 -11 -16 -20 -19 -20 -3 0 -14 9 -24 20 -18 20 -17 20 19 20 34 0 35 -1 24
-20z m72 6 c0 -24 -15 -26 -28 -5 -11 16 -9 19 8 19 11 0 20 -6 20 -14z m67
-11 c-15 -31 -21 -31 -35 0 -11 24 -10 25 17 25 27 0 28 -1 18 -25z m12 -343
c-39 -4 -42 -1 -28 34 l11 29 24 -30 24 -30 -31 -3z m-223 23 l27 -25 -47 0
c-50 0 -51 1 -36 31 14 25 23 24 56 -6z m126 0 l30 -25 -51 0 -51 0 16 25 c9
14 19 25 21 25 3 0 18 -11 35 -25z m-234 -5 c11 -18 10 -20 -13 -20 -27 0 -28
1 -19 24 8 21 17 20 32 -4z m-68 -5 c0 -8 -7 -15 -15 -15 -9 0 -12 6 -9 15 4
8 10 15 15 15 5 0 9 -7 9 -15z"/>
<path d="M750 970 c0 -5 5 -10 10 -10 6 0 10 5 10 10 0 6 -4 10 -10 10 -5 0
-10 -4 -10 -10z"/>
</g>
</svg>
